<?xml version="1.0" encoding="UTF-8" standalone="no"?>
<svg
   version="1.1"
   viewBox="0 0 1080 1080"
   id="svg3"
   sodipodi:docname="503ded82-4380-4670-b42d-d3f55c3aff7e.svgz"
   xmlns:inkscape="http://www.inkscape.org/namespaces/inkscape"
   xmlns:sodipodi="http://sodipodi.sourceforge.net/DTD/sodipodi-0.dtd"
   xmlns="http://www.w3.org/2000/svg"
   xmlns:svg="http://www.w3.org/2000/svg">
  <defs
     id="defs3" />
  <sodipodi:namedview
     id="namedview3"
     pagecolor="#ffffff"
     bordercolor="#000000"
     borderopacity="0.25"
     inkscape:showpageshadow="2"
     inkscape:pageopacity="0.0"
     inkscape:pagecheckerboard="0"
     inkscape:deskcolor="#d1d1d1" />
  <!-- Generator: Adobe Illustrator 28.6.0, SVG Export Plug-In . SVG Version: 1.2.0 Build 709)  -->
  <g
     id="g3">
    <g
       id="Camada_1">
      <g
         id="g2">
        <path
           d="M858.9,504c-6.3-24.7-41.4-45.1-250.4-28l95.2-84c2-1.8,2.4-4.7.8-6.9-1.5-2.2-4.4-2.9-6.7-1.6l-205.5,109.6c-1.7.9-2.8,2.7-2.8,4.6s1.1,3.7,2.8,4.6l139,71.9c2.2,1.2,4.9.6,6.5-1.4,1.6-2,1.5-4.7-.1-6.6l-38.1-44.6c12.6,2.3,25.1,4.8,37.4,7.5,26.6,6,59.1,13.3,68.5,17.6-3.5,6.5-23.1,30-132.7,85.7-81.4,41.4-181.3,84.9-240.9,110.9-18.2,7.9-32.5,14.2-42.7,18.8-17.6,7.9-27.3,12.3-22.2,24.7,1.8,4.4,5.2,7.1,9.8,7.8.8.1,1.6.2,2.4.2,3.2,0,6.4-.9,8.8-1.6,3.6-1,8.7-2.6,15.1-4.8,57.4-19.1,198.4-72.1,318.9-125.2,71.2-31.4,127.2-59.1,166.3-82.4,54.9-32.7,76.1-55.7,70.6-77Z"
           id="path1" />
        <path
           d="M471.5,603.9l-96.5,85.2c-2,1.8-2.4,4.7-.8,6.9,1,1.4,2.6,2.2,4.3,2.2s1.7-.2,2.5-.6l206.6-111.8c1.7-.9,2.7-2.6,2.7-4.5,0-1.9-1-3.7-2.6-4.6l-130.3-73.9c-2.1-1.2-4.7-.8-6.4,1-1.6,1.7-1.9,4.4-.6,6.4l31,48.3c-12.8-2.3-25.6-4.9-38.2-7.7-26.6-6-59.1-13.3-68.5-17.6,3.5-6.5,23.1-30,132.7-85.7,81.4-41.4,181.3-84.9,240.9-110.9,18.2-7.9,32.5-14.2,42.7-18.8,17.6-7.9,27.3-12.3,22.2-24.6-4.6-11.1-16.5-7.7-21-6.4-3.6,1-8.7,2.6-15.1,4.8-57.4,19.1-198.4,72.1-318.9,125.2-71.2,31.4-127.2,59.1-166.3,82.4-54.9,32.7-76.1,55.7-70.6,77,6.3,24.7,41.4,45.1,250.4,28Z"
           id="path2" />
      </g>
    </g>
  </g>
</svg>
