<?xml version="1.0" standalone="no"?>
<!DOCTYPE svg PUBLIC "-//W3C//DTD SVG 20010904//EN"
 "http://www.w3.org/TR/2001/REC-SVG-20010904/DTD/svg10.dtd">
<svg version="1.0" xmlns="http://www.w3.org/2000/svg"
 width="320.000000pt" height="128.000000pt" viewBox="0 0 320.000000 128.000000"
 preserveAspectRatio="xMidYMid meet">

<g transform="translate(0.000000,128.000000) scale(0.100000,-0.100000)"
fill="#000000" stroke="none">
<path d="M2870 866 c-242 -92 -419 -178 -466 -227 l-29 -31 24 -19 c20 -16 40
-19 135 -19 l111 -1 -47 -44 c-27 -24 -48 -46 -48 -49 0 -6 136 65 203 105
l28 17 -73 40 c-40 22 -74 39 -76 37 -2 -2 4 -15 14 -30 18 -27 17 -27 -1 -22
-11 3 -37 9 -58 13 -21 3 -36 11 -34 17 6 18 159 101 311 168 80 35 146 70
146 77 0 18 -15 15 -140 -32z"/>
<path d="M1587 836 c-99 -27 -142 -103 -135 -240 4 -70 9 -91 31 -125 36 -55
90 -81 167 -81 75 0 116 16 157 63 59 67 72 192 29 283 -27 59 -64 89 -127
103 -55 13 -63 13 -122 -3z m139 -97 c33 -31 47 -83 41 -146 -7 -66 -28 -100
-73 -119 -56 -23 -109 -1 -140 58 -19 36 -18 132 2 173 30 64 119 82 170 34z"/>
<path d="M248 820 c-68 -37 -108 -113 -108 -210 0 -94 39 -168 108 -201 56
-28 158 -24 199 7 38 28 73 82 73 110 0 21 -5 24 -40 24 -34 0 -42 -4 -55 -30
-18 -35 -43 -50 -85 -50 -69 0 -102 48 -102 146 1 96 35 143 105 144 37 0 87
-34 87 -60 0 -5 22 -10 49 -10 l50 0 -10 32 c-12 43 -65 96 -109 108 -55 15
-121 11 -162 -10z"/>
<path d="M1994 830 c-74 -30 -100 -145 -46 -200 16 -16 49 -33 73 -40 158 -40
174 -51 144 -96 -17 -26 -70 -40 -107 -29 -30 9 -58 34 -58 52 0 9 -14 13 -46
13 l-46 0 6 -32 c14 -68 78 -108 177 -108 108 0 171 49 171 134 0 78 -29 103
-149 131 -78 18 -113 38 -113 64 0 61 141 66 156 5 5 -21 12 -24 51 -24 l46 0
-7 32 c-7 36 -38 73 -78 94 -29 15 -140 18 -174 4z"/>
<path d="M590 615 l0 -215 45 0 45 0 0 95 0 95 85 0 85 0 0 -95 0 -95 45 0 45
0 0 215 0 215 -45 0 -45 0 0 -80 0 -80 -85 0 -85 0 0 80 0 80 -45 0 -45 0 0
-215z"/>
<path d="M1145 813 c-13 -35 -145 -405 -145 -409 0 -2 22 -4 49 -4 l48 0 13
45 13 45 77 0 78 0 14 -42 c14 -42 15 -43 66 -46 l51 -3 -23 63 c-13 35 -47
132 -77 216 l-53 152 -52 0 c-40 0 -53 -4 -59 -17z m105 -240 c0 -9 -16 -13
-50 -13 -27 0 -50 4 -50 8 0 8 32 108 46 142 6 14 54 -108 54 -137z"/>
<path d="M2788 751 c-59 -31 -111 -60 -114 -64 -3 -3 26 -22 66 -42 76 -38 96
-39 64 -4 -19 21 -19 22 1 16 11 -3 35 -8 53 -12 17 -4 32 -10 32 -14 0 -24
-93 -76 -294 -166 -147 -66 -193 -95 -151 -95 27 0 299 107 430 170 129 61
185 101 185 131 0 30 -33 39 -144 39 -58 0 -106 2 -106 4 0 3 21 25 48 50 26
25 45 45 42 45 -3 0 -53 -26 -112 -58z"/>
</g>
</svg>
